<svg xmlns="http://www.w3.org/2000/svg" viewBox="0 0 2500 2500">
  <path fill="#FF5A5F" d="M1250 0C559.6 0 0 559.6 0 1250s559.6 1250 1250 1250 1250-559.6 1250-1250S1940.4 0 1250 0zm0 2291.7c-575 0-1041.7-466.7-1041.7-1041.7S675 208.3 1250 208.3s1041.7 466.7 1041.7 1041.7-466.7 1041.7-1041.7 1041.7z"/>
  <path fill="#FF5A5F" d="M1250 416.7c-183.3 0-341.7 75-458.3 191.7-116.7 116.7-191.7 275-191.7 458.3 0 183.3 75 341.7 191.7 458.3l458.3 458.3 458.3-458.3c116.7-116.7 191.7-275 191.7-458.3 0-183.3-75-341.7-191.7-458.3-116.6-116.7-275-191.7-458.3-191.7zm0 916.6c-147.9 0-266.7-118.8-266.7-266.7s118.8-266.7 266.7-266.7 266.7 118.8 266.7 266.7-118.8 266.7-266.7 266.7z"/>
</svg>