<svg xmlns="http://www.w3.org/2000/svg" viewBox="0 0 1000 1000">
  <path fill="#FF5A5F" d="M499.3 736.7c-51-64-81-120.1-91-168.1-10-39-6-70 11-93 18-27 45-40 80-40s62 13 80 40c17 23 21 54 11 93-11 49-41 105-91 168.1zm362.2 43c-7 47-39 86-83 105-85 37-169.1-22-241.1-102 119.1-149.1 141.1-265.1 90-340.2-30-43-73-64-128.1-64-111 0-172.1 94-148.1 203.1 14 59 51 126.1 110 201.1-37 41-72 70-103 88-24 13-47 21-69 23-101 15-180.1-83-144.1-184.1 5-13 15-37 32-74l1-2c55-120.1 122.1-256.1 199.1-407.2l2-5 22-42c17-31 24-45 51-62 13-8 29-12 47-12 36 0 64 21 76 38 6 9 13 21 22 36l21 41 3 6c77 151.1 144.1 287.1 199.1 407.2l1 1 20 46 12 29c17 40 25 73 25 100 0 15-2 30-7 45z"/>
</svg>