<svg width="24" height="24" viewBox="0 0 24 24" fill="none" xmlns="http://www.w3.org/2000/svg">
<path d="M21.6066 4.98928C21.5562 4.93389 21.5048 4.87948 21.4504 4.82508C20.4345 3.80529 19.1031 3.30083 17.7698 3.29688C17.5858 3.29885 17.4038 3.30776 17.2208 3.32655C17.2643 3.34732 17.3069 3.36908 17.3494 3.39183C17.5621 3.50459 17.7658 3.64208 17.9558 3.80232C18.0319 3.86661 18.1061 3.93486 18.1773 4.00608C18.3039 4.13269 18.4197 4.26721 18.5225 4.40767C18.5908 4.50164 18.6551 4.59758 18.7124 4.6965C18.8578 4.94378 18.9706 5.20491 19.0497 5.47296C19.1289 5.74102 19.1754 6.01699 19.1892 6.29394C19.1922 6.34933 19.1932 6.40473 19.1932 6.46012C19.1932 6.90325 19.1081 7.34737 18.938 7.76577C18.7896 8.13175 18.5769 8.47893 18.3 8.78754C18.2604 8.83106 18.2198 8.87459 18.1773 8.91712L14.4354 12.655C14.2247 12.8667 13.4522 13.6382 13.4522 13.6382L13.1782 13.9132C12.744 14.3474 12.1337 14.4958 11.5788 14.3603C11.4206 14.3217 11.2663 14.2594 11.1218 14.1744C11.0022 14.1031 10.8884 14.0161 10.7855 13.9122L9.50857 12.6333L9.5145 12.6402L9.52044 12.6471L7.48184 10.6095C7.02882 10.1565 6.43831 9.92999 5.84384 9.92999C5.24937 9.92999 4.66183 10.1565 4.20979 10.6095C4.18309 10.6362 4.15836 10.6629 4.13363 10.6896C3.73105 11.1298 3.53125 11.6837 3.53125 12.2465C3.53125 12.838 3.75677 13.4276 4.20979 13.8816L10.3978 20.0795L10.3454 20.0191C10.5739 20.2476 10.834 20.4158 11.111 20.5295C11.3879 20.6423 11.6847 20.6957 11.9834 20.6957C12.5769 20.6957 13.1644 20.4721 13.5848 20.0597L13.6224 20.0181L21.4513 12.1872C22.4692 11.1684 22.9756 9.838 22.9786 8.50465C22.9766 7.24054 22.5206 5.98138 21.6076 4.98829H21.6066V4.98928Z" fill="#738FF2"/>
<path d="M14.4382 16.0578L21.1702 9.32973C21.8448 8.64921 22.1851 7.758 22.1851 6.87273C22.1851 6.21397 21.9971 5.55125 21.6232 4.97656C22.5362 5.96965 22.9922 7.22881 22.9942 8.49292C22.9912 9.82627 22.4848 11.1567 21.467 12.1755L13.638 20.0064L13.6004 20.048C13.181 20.4604 12.5935 20.684 11.999 20.684C11.7003 20.684 11.4035 20.6306 11.1266 20.5178C10.8486 20.405 10.5895 20.2359 10.361 20.0074L10.4134 20.0677L4.22542 13.8698C3.7724 13.4168 3.54688 12.8263 3.54688 12.2348C3.54688 11.672 3.74668 11.1181 4.14926 10.6779C4.38961 10.4148 4.77043 10.1062 5.43018 9.97069C4.29466 10.8599 6.00487 12.5592 6.83574 13.3644L9.52222 16.0509L9.51035 16.037L10.7883 17.316C11.449 17.9767 12.5213 17.9777 13.182 17.316L13.456 17.041C13.456 17.041 14.2285 16.2695 14.4392 16.0578H14.4382Z" fill="#2950C7"/>
<path d="M12.6401 6.28108C12.282 6.63915 11.7024 6.63816 11.3453 6.28108L9.88932 4.82409C8.87052 3.80529 7.54014 3.30083 6.20679 3.29688C4.87146 3.30083 3.54306 3.80529 2.52425 4.8231C1.50742 5.83993 1 7.17031 1 8.50663C1 9.84295 1.46291 11.0487 2.38775 12.0477C2.43622 11.2277 2.77351 10.4176 3.39963 9.7925C4.07521 9.11495 4.97037 8.77369 5.85466 8.77369C6.73894 8.77369 7.63311 9.11495 8.31067 9.79052L10.3681 11.8529L10.3562 11.838L11.2187 12.6986L11.2909 12.7708C11.6797 13.1595 12.3097 13.1595 12.6985 12.7708C13.1267 12.3425 13.5362 11.933 13.6292 11.838L17.3711 8.09911C17.8202 7.64312 18.0467 7.05557 18.0467 6.46111C18.0467 5.86664 17.8231 5.27909 17.3711 4.82508C16.9141 4.37008 16.3286 4.14753 15.7351 4.14753C15.1406 4.14753 14.6243 4.30084 14.1713 4.75387L14.0991 4.82508L12.6421 6.28306V6.28108H12.6401Z" fill="#2950C7"/>
<path d="M4.97631 4.99719C3.97729 4.99719 2.96639 5.38196 2.20278 6.14755C1.49555 6.85379 1.11276 7.76973 1.05935 8.69654C1.03957 8.67577 1.02176 8.65302 1.00297 8.63225C1.00297 8.59071 1 8.54916 1 8.50663C1 7.17031 1.50644 5.83993 2.52425 4.8231C3.54207 3.80529 4.87146 3.30083 6.20679 3.29688C7.54014 3.30083 8.87052 3.80529 9.88932 4.8231L11.3453 6.2801C11.7024 6.63717 12.282 6.63816 12.6401 6.2801L14.0971 4.82212L14.1693 4.7509C14.6223 4.29788 15.1386 4.14456 15.7331 4.14456C16.4858 4.12379 17.11 4.56296 17.3286 4.78552C17.7579 5.16238 18.0081 5.88345 18.0348 6.19701C17.3286 4.88938 16.201 6.05161 15.5709 6.64607L13.7588 8.45618C13.654 8.56301 13.191 9.02592 12.7074 9.50961C12.2682 9.94878 11.557 9.94878 11.1178 9.50961L11.0367 9.4285L10.0624 8.45618L10.0753 8.473L7.75082 6.14359C6.98523 5.38097 5.97533 4.99521 4.97631 4.99521V4.99719Z" fill="#738FF2"/>
</svg>
