<svg xmlns="http://www.w3.org/2000/svg" viewBox="0 0 400 298">
  <path fill="#00DC82" d="M227.92 298H399.2c5.47 0 10.86-1.46 15.58-4.22a31.31 31.31 0 0 0 11.39-11.55c2.68-4.82 4.08-10.27 4.05-15.8a31.27 31.27 0 0 0-4.18-15.74L314.41 66.42a31.31 31.31 0 0 0-11.43-11.48 31.02 31.02 0 0 0-15.56-4.16c-5.47-.02-10.84 1.42-15.57 4.16a31.31 31.31 0 0 0-11.43 11.48l-32.5 56.16-63.43-109.7A31.31 31.31 0 0 0 153.06.4a31.02 31.02 0 0 0-15.56-4.16c-5.47-.02-10.84 1.42-15.57 4.16A31.31 31.31 0 0 0 110.5 11.88L4.18 250.69A31.27 31.27 0 0 0 0 266.43c-.03 5.53 1.37 10.98 4.05 15.8a31.31 31.31 0 0 0 11.39 11.55 30.96 30.96 0 0 0 15.58 4.22h107.55c44.91 0 78.02-19.66 101.56-58.08l58.54-101.18 31.38 54.27-94.68.01 31.55 54.54h-39z"/>
  <path fill="#00DC82" d="M138.37 244.27l-99.9-.01 99.4-171.86 49.47 85.58-48.97 86.29z"/>
</svg>